<?xml version="1.0" encoding="UTF-8"?>
<svg width="32px" height="32px" viewBox="0 0 32 32" version="1.1" xmlns="http://www.w3.org/2000/svg" xmlns:xlink="http://www.w3.org/1999/xlink">
    <title>Shape@3x</title>
    <g id="VLAM_2020_WireFrame" stroke="none" stroke-width="1" fill="none" fill-rule="evenodd">
        <g id="PE_VLAM_Prototype_Mobile_Menu" transform="translate(-144.000000, -493.000000)" fill="#FFFFFF" fill-rule="nonzero">
            <path d="M160,496 C164.234069,496 164.735553,496.016114 166.407628,496.092403 C167.953687,496.162965 168.793312,496.421292 169.352139,496.63839 C170.092249,496.926049 170.620547,497.26973 171.175409,497.824591 C171.73027,498.379453 172.073951,498.907751 172.361547,499.647861 C172.578708,500.206688 172.837035,501.046313 172.907597,502.592309 C172.983886,504.264447 173,504.765931 173,509 C173,513.234069 172.983886,513.735553 172.907597,515.407628 C172.837035,516.953687 172.578708,517.793312 172.361547,518.352139 C172.073951,519.092249 171.73027,519.620547 171.175409,520.175409 C170.620547,520.73027 170.092249,521.073951 169.352139,521.361547 C168.793312,521.578708 167.953687,521.837035 166.407628,521.907597 C164.735805,521.983886 164.234321,522 160,522 C155.765679,522 155.264195,521.983886 153.592372,521.907597 C152.046313,521.837035 151.206688,521.578708 150.647924,521.361547 C149.907751,521.073951 149.379453,520.73027 148.824591,520.175409 C148.26973,519.620547 147.926049,519.092249 147.638453,518.352139 C147.421292,517.793312 147.162965,516.953687 147.092403,515.407691 C147.016114,513.735553 147,513.234069 147,509 C147,504.765931 147.016114,504.264447 147.092403,502.592372 C147.162965,501.046313 147.421292,500.206688 147.638453,499.647861 C147.926049,498.907751 148.26973,498.379453 148.824591,497.824591 C149.379453,497.26973 149.907751,496.926049 150.647924,496.63839 C151.206688,496.421292 152.046313,496.162965 153.592309,496.092403 C155.264447,496.016114 155.765931,496 160,496 M159.999968,493 C155.654597,493 155.109791,493.018419 153.40322,493.096284 C151.700143,493.174023 150.53711,493.444458 149.519329,493.840011 C148.467187,494.248902 147.574906,494.795995 146.685419,495.685482 C145.795932,496.574969 145.248838,497.467251 144.839948,498.519392 C144.444394,499.537173 144.17396,500.700207 144.096221,502.403284 C144.018355,504.109791 144,504.654661 144,509.000032 C144,513.345403 144.018355,513.890273 144.096221,515.596779 C144.17396,517.299856 144.444394,518.46289 144.839948,519.480671 C145.248838,520.532749 145.795932,521.425094 146.685419,522.314581 C147.574906,523.204068 148.467187,523.751162 149.519329,524.160052 C150.53711,524.555606 151.700143,524.82604 153.40322,524.903779 C155.109791,524.981645 155.654597,525 159.999968,525 C164.345339,525 164.890209,524.981645 166.596716,524.903779 C168.299793,524.82604 169.462827,524.555606 170.480608,524.160052 C171.532749,523.751162 172.425031,523.204068 173.314518,522.314581 C174.204005,521.425094 174.751098,520.532813 175.159989,519.480671 C175.555542,518.46289 175.825977,517.299856 175.903716,515.596779 C175.981582,513.890273 176,513.345403 176,509.000032 C176,504.654661 175.981582,504.109791 175.903716,502.403284 C175.825977,500.700207 175.555542,499.537173 175.159989,498.519392 C174.751098,497.467251 174.204005,496.574969 173.314518,495.685482 C172.425031,494.795995 171.532749,494.248902 170.480608,493.840011 C169.462827,493.444458 168.299793,493.174023 166.596716,493.096284 C164.890209,493.018419 164.345339,493 159.999968,493 Z M160,501 C155.581742,501 152,504.581742 152,509 C152,513.418258 155.581742,517 160,517 C164.418258,517 168,513.418258 168,509 C168,504.581742 164.418258,501 160,501 Z M160,514 C157.23861,514 155,511.76139 155,509 C155,506.23861 157.23861,504 160,504 C162.76139,504 165,506.23861 165,509 C165,511.76139 162.76139,514 160,514 Z M170,500.999967 C170,502.104547 169.104613,503 168.000033,503 C166.895453,503 166,502.104547 166,500.999967 C166,499.895387 166.895453,499 168.000033,499 C169.104613,499 170,499.895387 170,500.999967 Z" id="Shape"></path>
        </g>
    </g>
</svg>