<?xml version="1.0" encoding="UTF-8"?>
<svg width="16px" height="16px" viewBox="0 0 16 16" version="1.1" xmlns="http://www.w3.org/2000/svg" xmlns:xlink="http://www.w3.org/1999/xlink">
    <title>Shape@3x</title>
    <g id="VLAM_2020_WireFrame" stroke="none" stroke-width="1" fill="none" fill-rule="evenodd">
        <g id="PE_VLAM_Prototype_Desktop_1024px" transform="translate(-936.000000, -45.000000)" fill="#1241CF" fill-rule="nonzero">
            <g id="nav" transform="translate(72.000000, 24.000000)">
                <g id="instagram-seeklogo.com-2" transform="translate(864.000000, 21.000000)">
                    <path d="M7.99998412,1.44147062 C10.1360866,1.44147062 10.3890871,1.44960017 11.2326547,1.48808851 C12.0126469,1.52368704 12.4362408,1.65401386 12.718171,1.76354048 C13.0915586,1.90866563 13.3580872,2.08205366 13.6380167,2.36198324 C13.9179463,2.64191282 14.0913344,2.90844136 14.2364277,3.28182899 C14.3459861,3.5637592 14.4763129,3.98735315 14.5119115,4.7673135 C14.5503998,5.61091297 14.5585294,5.86391342 14.5585294,8.00001588 C14.5585294,10.1361183 14.5503998,10.3891188 14.5119115,11.2326865 C14.4763129,12.0126786 14.3459861,12.4362726 14.2364277,12.7182027 C14.0913344,13.0915904 13.9179463,13.3581189 13.6380167,13.6380485 C13.3580872,13.9179781 13.0915586,14.0913661 12.718171,14.2364595 C12.4362408,14.3460179 12.0126469,14.4763448 11.2326547,14.5119432 C10.3892141,14.5504316 10.1362136,14.5585611 7.99998412,14.5585611 C5.86375464,14.5585611 5.61075419,14.5504316 4.7673135,14.5119432 C3.9873214,14.4763448 3.56372744,14.3460179 3.28182899,14.2364595 C2.9084096,14.0913661 2.64188107,13.9179781 2.36195149,13.6380485 C2.08202191,13.3581189 1.90863387,13.0915904 1.76354048,12.7182027 C1.65398211,12.4362726 1.52365528,12.0126786 1.48805675,11.2327182 C1.44956841,10.3891188 1.44143887,10.1361183 1.44143887,8.00001588 C1.44143887,5.86391342 1.44956841,5.61091297 1.48805675,4.76734526 C1.52365528,3.98735315 1.65398211,3.5637592 1.76354048,3.28182899 C1.90863387,2.90844136 2.08202191,2.64191282 2.36195149,2.36198324 C2.64188107,2.08205366 2.9084096,1.90866563 3.28182899,1.76354048 C3.56372744,1.65401386 3.9873214,1.52368704 4.76728174,1.48808851 C5.61088121,1.44960017 5.86388166,1.44147062 7.99998412,1.44147062 M7.99998413,0 C5.82729869,0 5.55489529,0.0092092545 4.70161023,0.0481421718 C3.85007175,0.0870115769 3.26855496,0.222228838 2.75966426,0.420005517 C2.23359354,0.624450967 1.78745279,0.897997581 1.34270931,1.34274106 C0.897965825,1.78748454 0.624419212,2.23362529 0.419973762,2.75969601 C0.222197082,3.26858672 0.0869798213,3.85010351 0.0481104158,4.70164199 C0.00917749844,5.55489529 0,5.82733045 0,8.00001588 C0,10.1727013 0.00917749844,10.4451364 0.0481104158,11.2983898 C0.0869798213,12.1499283 0.222197082,12.7314451 0.419973762,13.2403357 C0.624419212,13.7663747 0.897965825,14.2125472 1.34270931,14.6572907 C1.78745279,15.1020342 2.23359354,15.3755808 2.75966426,15.5800262 C3.26855496,15.7778029 3.85007175,15.9130202 4.70161023,15.9518896 C5.55489529,15.9908225 5.82729869,16 7.99998413,16 C10.1726696,16 10.4451047,15.9908225 11.298358,15.9518896 C12.1498965,15.9130202 12.7314133,15.7778029 13.240304,15.5800262 C13.7663747,15.3755808 14.2125154,15.1020342 14.6572589,14.6572907 C15.1020024,14.2125472 15.3755491,13.7664064 15.5799945,13.2403357 C15.7777712,12.7314451 15.9129884,12.1499283 15.9518578,11.2983898 C15.9907908,10.4451364 16,10.1727013 16,8.00001588 C16,5.82733045 15.9907908,5.55489529 15.9518578,4.70164199 C15.9129884,3.85010351 15.7777712,3.26858672 15.5799945,2.75969601 C15.3755491,2.23362529 15.1020024,1.78748454 14.6572589,1.34274106 C14.2125154,0.897997581 13.7663747,0.624450967 13.240304,0.420005517 C12.7314133,0.222228838 12.1498965,0.0870115769 11.298358,0.0481421718 C10.4451047,0.0092092545 10.1726696,0 7.99998413,0 Z M7.99998413,3.89189447 C5.73114137,3.89189447 3.89186271,5.73117312 3.89186271,8.00001587 C3.89186271,10.2688586 5.73114137,12.1081373 7.99998413,12.1081373 C10.2688269,12.1081373 12.1081056,10.2688586 12.1081056,8.00001587 C12.1081056,5.73117312 10.2688269,3.89189447 7.99998413,3.89189447 Z M7.99998412,10.6666984 C6.52723381,10.6666984 5.33330158,9.47276619 5.33330158,8.00001587 C5.33330158,6.52726556 6.52723381,5.33333333 7.99998412,5.33333333 C9.47273444,5.33333333 10.6666667,6.52726556 10.6666667,8.00001587 C10.6666667,9.47276619 9.47273444,10.6666984 7.99998412,10.6666984 Z M13.2303961,3.72958929 C13.2303961,4.25978831 12.8006097,4.68960644 12.2704107,4.68960644 C11.7402117,4.68960644 11.3103936,4.25978831 11.3103936,3.72958929 C11.3103936,3.19939028 11.7402117,2.7696039 12.2704107,2.7696039 C12.8006097,2.7696039 13.2303961,3.19939028 13.2303961,3.72958929 Z" id="Shape"></path>
                </g>
            </g>
        </g>
    </g>
</svg>